<svg width="220" height="435" viewBox="0 0 220 435" fill="none" xmlns="http://www.w3.org/2000/svg">
<path d="M23.6903 399.926C30.9184 399.926 38.1194 399.292 45.3287 398.841C50.3918 398.523 55.5143 398.851 60.5547 398.162C63.4416 397.767 66.171 397.632 69.0598 397.47C69.7351 397.432 71.1941 396.853 71.8232 397.035C72.0967 397.114 71.0038 398.23 70.9647 398.27C69.9001 399.365 68.8461 400.449 67.8792 401.637C65.2468 404.869 62.8398 408.541 60.7559 412.156C58.2385 416.522 55.4732 420.728 53.3911 425.335C52.2086 427.951 51.1771 430.592 50.0641 433.234C49.5964 434.345 49.3639 434.524 48.897 433.18C47.4426 428.992 45.9145 424.606 43.7323 420.747C41.6221 417.016 38.7042 414.01 35.6565 411.07C33.2389 408.737 30.8238 406.204 28.0367 404.324C26.6572 403.393 25.2213 402.555 23.8244 401.65C23.2802 401.298 22.2871 400.996 22 400.415" stroke="url(#paint0_linear)" stroke-width="1.2" stroke-linecap="round"/>
<path d="M219 1C190.977 1 160.5 69.8213 143.5 113.321C129.947 148 116.545 182.04 93.8532 209.639C74.0581 233.715 38.6149 245.157 14.3235 238.81C-12.4584 231.811 32.2103 293.309 28.6069 259.174C24.4779 220.06 -16.4148 57.612 9.60561 47.2748C31.8766 38.4271 88.8359 77.2658 93.8532 113.321C101.046 165.007 57.7514 207.526 52.0664 259.174C46.9739 305.439 46.0006 351.051 46.0006 397.871" stroke="url(#paint1_linear)" stroke-width="1.2" stroke-linecap="round"/>
<defs>
<linearGradient id="paint0_linear" x1="46.9336" y1="397" x2="46.9336" y2="434.128" gradientUnits="userSpaceOnUse">
<stop stop-color="#EEE4E4"/>
<stop offset="0.364583" stop-color="#DA7D7D" stop-opacity="0.4"/>
<stop offset="0.671875" stop-color="#FF0099" stop-opacity="0.17"/>
<stop offset="1" stop-color="#EB73B4" stop-opacity="0.33"/>
</linearGradient>
<linearGradient id="paint1_linear" x1="112.421" y1="46" x2="112.421" y2="397.871" gradientUnits="userSpaceOnUse">
<stop stop-color="#EEE4E4"/>
<stop offset="0.364583" stop-color="#DA7D7D" stop-opacity="0.4"/>
<stop offset="0.671875" stop-color="#FF0099" stop-opacity="0.17"/>
<stop offset="1" stop-color="#B7209F" stop-opacity="0.56"/>
</linearGradient>
</defs>
</svg>
