<svg width="220" height="436" viewBox="0 0 220 436" fill="none" xmlns="http://www.w3.org/2000/svg">
<path d="M24.6903 400.926C31.9184 400.926 39.1194 400.292 46.3287 399.841C51.3918 399.523 56.5143 399.851 61.5547 399.162C64.4416 398.767 67.171 398.632 70.0598 398.47C70.7351 398.432 72.1941 397.853 72.8232 398.035C73.0967 398.114 72.0038 399.23 71.9647 399.27C70.9001 400.365 69.8461 401.449 68.8792 402.637C66.2468 405.869 63.8398 409.541 61.7559 413.156C59.2385 417.522 56.4732 421.728 54.3911 426.335C53.2086 428.951 52.1771 431.592 51.0641 434.234C50.5964 435.345 50.3639 435.524 49.897 434.18C48.4426 429.992 46.9145 425.606 44.7323 421.747C42.6221 418.016 39.7042 415.01 36.6565 412.07C34.2389 409.737 31.8238 407.204 29.0367 405.324C27.6572 404.393 26.2213 403.555 24.8244 402.65C24.2802 402.298 23.2871 401.996 23 401.415" stroke="url(#paint0_linear)" stroke-width="1.2" stroke-linecap="round"/>
<path d="M219 1C190.977 1 160.5 69.8213 143.5 113.321C129.947 148 116.545 182.04 93.8532 209.639C74.0581 233.715 38.6149 245.157 14.3235 238.81C-12.4584 231.811 32.2103 293.309 28.6069 259.174C24.4779 220.06 -16.4148 57.612 9.60561 47.2748C31.8766 38.4271 88.8359 77.2658 93.8532 113.321C101.046 165.007 57.7514 207.526 52.0664 259.174C46.9739 305.439 46.0006 351.051 46.0006 397.871" stroke="url(#paint1_linear)" stroke-width="1.2" stroke-linecap="round"/>
<defs>
<linearGradient id="paint0_linear" x1="47.9336" y1="398" x2="47.9336" y2="435.128" gradientUnits="userSpaceOnUse">
<stop stop-color="#EEE4E4"/>
<stop offset="0.364583" stop-color="#DA7D7D" stop-opacity="0.4"/>
<stop offset="0.671875" stop-color="#FF0099" stop-opacity="0.17"/>
<stop offset="1" stop-color="#73D5EB"/>
</linearGradient>
<linearGradient id="paint1_linear" x1="112.421" y1="46" x2="112.421" y2="397.871" gradientUnits="userSpaceOnUse">
<stop stop-color="#EEE4E4"/>
<stop offset="0.364583" stop-color="#DA7D7D" stop-opacity="0.4"/>
<stop offset="0.671875" stop-color="#FF0099" stop-opacity="0.17"/>
<stop offset="1" stop-color="#B7209F" stop-opacity="0.56"/>
</linearGradient>
</defs>
</svg>
