<svg width="172" height="191" viewBox="0 0 172 191" fill="none" xmlns="http://www.w3.org/2000/svg">
<g filter="url(#filter0_d)">
<path d="M60.6603 1.03836C65.9436 -0.590824 71.6296 0.0406034 76.4675 2.79373C81.3054 5.54685 84.8989 10.1961 86.4575 15.7188C88.016 21.2415 87.412 27.1852 84.7782 32.2423C82.1444 37.2995 77.6967 41.0558 72.4134 42.685C67.1301 44.3141 61.444 43.6827 56.6061 40.9296C51.7682 38.1765 48.1747 33.5272 46.6162 28.0045C45.0576 22.4818 45.6617 16.5381 48.2954 11.481C50.9292 6.42386 55.377 2.66753 60.6603 1.03836ZM99.7246 20.6819C116.697 15.4482 137.335 27.1926 142.036 43.8512C163.55 37.217 183.264 93.8014 154.647 88.5393L90.9013 108.196L27.1552 127.853C6.83449 146.623 -6.97048 89.7996 14.5438 83.1653C9.84259 66.5067 21.0779 44.9338 38.0503 39.7001C45.6229 53.0287 61.1183 59.7492 75.9393 55.1789C90.7603 50.6087 100.285 36.1728 99.7246 20.6819ZM36.6158 130.684L76.4571 118.398L100.88 174.247L69.0066 184.075L36.6158 130.684ZM76.4571 118.398L108.33 108.57L116.816 169.332L100.88 174.247L76.4571 118.398ZM108.33 108.57L148.171 96.2843L148.689 159.504L116.816 169.332L108.33 108.57Z" fill="#A62525"/>
<path d="M141.496 44.0178L141.649 44.562L142.19 44.3954C147.294 42.8213 152.36 44.9703 156.715 49.1899C161.064 53.4046 164.608 59.6064 166.606 65.8657C168.61 72.1444 169.021 78.3585 167.258 82.6335C166.384 84.7514 164.983 86.384 162.973 87.344C160.954 88.3086 158.259 88.623 154.758 87.9793L154.625 87.9548L154.494 87.9952L90.7478 107.652L27.0017 127.309L26.8777 127.348L26.7814 127.436C24.3057 129.723 21.9784 130.814 19.8523 131.028C17.7317 131.241 15.7413 130.59 13.9213 129.259C10.2539 126.576 7.34157 121.17 5.7047 114.88C4.07201 108.606 3.73881 101.565 5.12643 95.7083C6.5146 89.8493 9.58971 85.2845 14.6974 83.7094L15.2377 83.5428L15.0841 82.9987C12.7817 74.8401 14.3751 65.4369 18.6622 57.4113C22.8765 49.5218 29.6585 43.0296 37.7845 40.3773C45.5545 53.6594 61.1504 60.3308 76.0929 55.7231C91.0353 51.1154 100.67 36.6637 100.299 21.0999C108.502 18.7172 117.569 20.3222 125.205 24.5574C132.972 28.8657 139.193 35.8592 141.496 44.0178ZM37.4785 131.01L76.1396 119.088L100.106 173.894L69.2647 183.404L37.4785 131.01ZM101.197 173.557L77.2304 118.751L107.864 109.305L116.192 168.933L101.197 173.557ZM117.282 168.597L108.955 108.969L147.616 97.0471L148.124 159.087L117.282 168.597ZM60.8138 1.58249C65.9472 -0.000461816 71.4761 0.611548 76.185 3.29124C80.8947 5.97142 84.3976 10.5007 85.9172 15.8854C87.4368 21.2702 86.8466 27.0616 84.2826 31.9848C81.719 36.907 77.3932 40.5579 72.2598 42.1408C67.1264 43.7238 61.5975 43.1118 56.8887 40.4321C52.1789 37.7519 48.6761 33.2226 47.1565 27.8379C45.6368 22.4531 46.2271 16.6617 48.7911 11.7386C51.3546 6.8163 55.6805 3.16544 60.8138 1.58249Z" stroke="#D3D3D3" stroke-opacity="0.8" stroke-width="1.13077"/>
</g>
<defs>
<filter id="filter0_d" x="0.711234" y="0.151367" width="171.207" height="189.893" filterUnits="userSpaceOnUse" color-interpolation-filters="sRGB">
<feFlood flood-opacity="0" result="BackgroundImageFix"/>
<feColorMatrix in="SourceAlpha" type="matrix" values="0 0 0 0 0 0 0 0 0 0 0 0 0 0 0 0 0 0 127 0" result="hardAlpha"/>
<feOffset dy="2.98457"/>
<feGaussianBlur stdDeviation="1.49228"/>
<feComposite in2="hardAlpha" operator="out"/>
<feColorMatrix type="matrix" values="0 0 0 0 0 0 0 0 0 0 0 0 0 0 0 0 0 0 0.25 0"/>
<feBlend mode="normal" in2="BackgroundImageFix" result="effect1_dropShadow"/>
<feBlend mode="normal" in="SourceGraphic" in2="effect1_dropShadow" result="shape"/>
</filter>
</defs>
</svg>
